# xmcd CD database file
#
# Track frame offsets:
#	150
#	15153
#	27678
#	42438
#	58434
#	69003
#	90513
#	105622
#	118815
#	136355
#	154889
#	166910
#	180967
#	196799
#
# Disc length: 2787 seconds
#
# Revision: 3
# Processed by: cddbd v1.5.2PL0 Copyright (c) Steve Scherf et al.
# Submitted via: CDex 1.51
#
DISCID=b20ae10e
DTITLE=Roger Cicero - Männersachen
DYEAR=2006
DGENRE=Swing
TTITLE0=Zieh die Schuh aus
TTITLE1=Kein Mann für eine Frau
TTITLE2=Kompromisse
TTITLE3=Ich atme ein
TTITLE4=Schiess mich doch zum Mond (Fly Me To The Moon - In Other Words)
TTITLE5=Wenn sie dich fragt
TTITLE6=Fachmann in Sachen Anna
TTITLE7=Ich Idiot ließ Dich gehen
TTITLE8=Mein guter Stern auf allen Wegen
TTITLE9=Murphys Gesetz
TTITLE10=Schön dass du da bist
TTITLE11=Das ganze leben ist ein Zoo
TTITLE12=Du willst es doch auch
TTITLE13=So geil Berlin
EXTD=YEAR: 2006
EXTT0=
EXTT1=
EXTT2=
EXTT3=
EXTT4=
EXTT5=
EXTT6=
EXTT7=
EXTT8=
EXTT9=
EXTT10=
EXTT11=
EXTT12=
EXTT13=
PLAYORDER=
